<svg width="257" height="50" viewBox="0 0 257 50" fill="none" xmlns="http://www.w3.org/2000/svg">
<path d="M0.624 22.344C0.624 21.832 0.624 21.256 0.624 20.616C0.624 19.9333 0.645333 19.2507 0.688 18.568C0.730667 17.8427 0.794667 17.16 0.88 16.52C1.008 15.8373 1.17867 15.24 1.392 14.728C1.73333 13.96 2.26667 13.448 2.992 13.192C3.71733 12.8933 4.50667 12.7653 5.36 12.808C6.256 12.808 6.96 12.9573 7.472 13.256C7.984 13.5547 8.368 13.96 8.624 14.472C8.88 14.9413 9.02933 15.496 9.072 16.136C9.15733 16.7333 9.2 17.3733 9.2 18.056C9.584 17.3733 10.096 16.8187 10.736 16.392C11.4187 15.9653 12.1013 15.624 12.784 15.368C13.4667 15.112 14.0853 14.9413 14.64 14.856C15.1947 14.728 15.5147 14.664 15.6 14.664C16.6667 14.5787 17.6267 14.5573 18.48 14.6C19.376 14.6427 20.3573 14.8347 21.424 15.176C22.1067 15.432 22.8107 15.7947 23.536 16.264C24.2613 16.6907 24.9013 17.2027 25.456 17.8C26.0107 18.3973 26.3733 19.0587 26.544 19.784C26.7573 20.4667 26.672 21.192 26.288 21.96C25.6907 23.0267 25.0293 23.56 24.304 23.56C23.5787 23.5173 22.7893 23.3893 21.936 23.176C21.4667 23.0907 20.912 22.8987 20.272 22.6C19.632 22.3013 19.0773 22.1093 18.608 22.024C17.1573 21.8107 15.8773 21.9173 14.768 22.344C13.6587 22.7707 12.6987 23.2827 11.888 23.88C10.9493 24.6053 10.1387 25.4373 9.456 26.376V35.592C9.456 36.744 9.43467 37.9387 9.392 39.176C9.392 40.4133 9.22133 41.544 8.88 42.568C8.58133 43.5493 8.048 44.36 7.28 45C6.55467 45.5973 5.488 45.8533 4.08 45.768C3.312 45.7253 2.62933 45.3627 2.032 44.68C1.43467 43.9547 1.072 43.2507 0.944 42.568C0.858667 41.928 0.794667 41.16 0.752 40.264C0.709333 39.368 0.666667 38.4293 0.624 37.448C0.624 36.4667 0.624 35.4853 0.624 34.504C0.624 33.48 0.624 32.5413 0.624 31.688V22.344ZM50.1415 36.232C50.6535 36.104 51.1655 36.0187 51.6775 35.976C52.2322 35.9333 52.7228 35.9973 53.1495 36.168C53.6188 36.3387 54.0028 36.6373 54.3015 37.064C54.6002 37.448 54.7495 38.0027 54.7495 38.728C54.7495 39.24 54.6215 39.7307 54.3655 40.2C54.1095 40.6693 53.7895 41.096 53.4055 41.48C53.0215 41.864 52.5948 42.2053 52.1255 42.504C51.6562 42.76 51.2082 42.9733 50.7815 43.144C49.5442 43.6987 48.1148 44.1253 46.4935 44.424C44.9148 44.7227 43.2722 44.8293 41.5655 44.744C39.2615 44.6587 37.0428 44.2107 34.9095 43.4C32.8188 42.5467 31.1762 41.16 29.9815 39.24C28.8722 37.3627 28.2108 35.272 27.9975 32.968C27.7842 30.664 27.8908 28.488 28.3175 26.44C28.7868 23.9653 29.5762 21.96 30.6855 20.424C31.8375 18.8453 33.2028 17.5867 34.7815 16.648C36.7015 15.5387 38.8562 14.9627 41.2455 14.92C43.6348 14.8773 45.9175 15.3467 48.0935 16.328C49.5442 16.968 50.8455 17.8427 51.9975 18.952C53.1495 20.0187 54.0242 21.32 54.6215 22.856C54.7922 23.24 54.9202 23.7093 55.0055 24.264C55.1335 24.8187 55.2188 25.416 55.2615 26.056C55.3042 26.6533 55.3042 27.2507 55.2615 27.848C55.2188 28.4453 55.1122 28.9787 54.9415 29.448C54.6855 30.216 54.3655 30.8133 53.9815 31.24C53.5975 31.6667 53.1068 31.9867 52.5095 32.2C51.9122 32.4133 51.1868 32.5627 50.3335 32.648C49.5228 32.6907 48.5415 32.7333 47.3895 32.776C46.3655 32.8187 45.4055 32.84 44.5095 32.84C43.6135 32.84 42.6962 32.84 41.7575 32.84C40.8188 32.7973 39.8375 32.776 38.8135 32.776C37.8322 32.7333 36.7228 32.6907 35.4855 32.648C35.3575 33.5013 35.4642 34.248 35.8055 34.888C36.1895 35.4853 36.7015 35.9973 37.3415 36.424C37.9815 36.808 38.7068 37.1067 39.5175 37.32C40.3282 37.5333 41.1175 37.6613 41.8855 37.704C43.3362 37.7893 44.7228 37.6827 46.0455 37.384C47.3682 37.0427 48.7335 36.6587 50.1415 36.232ZM47.3895 23.816C46.5788 22.8773 45.7255 22.1947 44.8295 21.768C44.1468 21.4693 43.4215 21.3413 42.6535 21.384C41.9282 21.384 41.2242 21.4907 40.5415 21.704C39.3042 22.0027 38.2588 22.6427 37.4055 23.624C37.3202 23.7093 37.1708 23.9227 36.9575 24.264C36.7442 24.5627 36.5308 24.8827 36.3175 25.224C36.1468 25.5653 36.0188 25.8853 35.9335 26.184C35.8482 26.4827 35.8908 26.632 36.0615 26.632H48.6055C48.5628 26.0347 48.4562 25.544 48.2855 25.16C48.1148 24.7333 47.8162 24.2853 47.3895 23.816ZM85.2005 16.776C85.5418 17.5867 85.5632 18.4827 85.2645 19.464C85.0085 20.4453 84.5178 21.0853 83.7925 21.384C83.4085 21.5547 82.8965 21.704 82.2565 21.832C81.6165 21.9173 80.9125 22.0027 80.1445 22.088C79.4192 22.1733 78.6938 22.2373 77.9685 22.28C77.2432 22.3227 76.6245 22.344 76.1125 22.344C76.1552 23.624 76.1978 24.9467 76.2405 26.312C76.2832 27.6347 76.3258 28.936 76.3685 30.216C76.4112 31.496 76.4325 32.7333 76.4325 33.928C76.4325 35.08 76.4112 36.1253 76.3685 37.064C76.3685 37.704 76.3685 38.4507 76.3685 39.304C76.3685 40.1147 76.3045 40.904 76.1765 41.672C76.0912 42.44 75.9418 43.1227 75.7285 43.72C75.5152 44.2747 75.1952 44.6373 74.7685 44.808C73.4458 45.3627 72.2298 45.512 71.1205 45.256C70.0538 45.0427 69.2858 44.5947 68.8165 43.912C68.4752 43.3573 68.2192 42.7173 68.0485 41.992C67.8778 41.224 67.7498 40.456 67.6645 39.688C67.6218 38.8773 67.6005 38.1093 67.6005 37.384C67.6432 36.616 67.6645 35.9547 67.6645 35.4C67.7072 33.608 67.7285 31.5813 67.7285 29.32C67.7712 27.016 67.7925 24.712 67.7925 22.408H66.8325C66.3205 22.408 65.6592 22.408 64.8485 22.408C64.0805 22.3653 63.2912 22.3013 62.4805 22.216C61.7125 22.088 60.9872 21.9387 60.3045 21.768C59.6218 21.5547 59.1312 21.256 58.8325 20.872C58.3632 20.3173 58.0645 19.72 57.9365 19.08C57.8512 18.44 57.8938 17.8427 58.0645 17.288C58.2778 16.6907 58.5978 16.1787 59.0245 15.752C59.4512 15.2827 59.9418 14.984 60.4965 14.856C61.2645 14.6427 62.3525 14.536 63.7605 14.536C65.1685 14.4933 66.4912 14.4933 67.7285 14.536C67.6858 14.1093 67.6645 13.704 67.6645 13.32C67.6645 12.8933 67.6432 12.488 67.6005 12.104C67.5578 11.592 67.5365 10.952 67.5365 10.184C67.5365 9.37333 67.5792 8.584 67.6645 7.816C67.7925 7.00533 67.9845 6.25866 68.2405 5.576C68.4965 4.85066 68.8592 4.296 69.3285 3.912C69.9685 3.4 70.6085 3.12266 71.2485 3.08C71.9312 2.99467 72.5498 3.08 73.1045 3.336C73.7018 3.592 74.1925 3.976 74.5765 4.488C75.0032 4.95733 75.3018 5.49066 75.4725 6.088C75.6005 6.6 75.7072 7.21866 75.7925 7.944C75.8778 8.62666 75.9205 9.352 75.9205 10.12C75.9632 10.888 75.9845 11.656 75.9845 12.424C75.9845 13.192 75.9845 13.896 75.9845 14.536H76.6245C77.2645 14.536 78.0112 14.5147 78.8645 14.472C79.7178 14.4293 80.5498 14.4507 81.3605 14.536C82.2138 14.6213 82.9818 14.8347 83.6645 15.176C84.3472 15.4747 84.8592 16.008 85.2005 16.776ZM108.159 37.32C108.799 37.32 109.503 37.3413 110.271 37.384C111.081 37.384 111.849 37.448 112.575 37.576C113.343 37.6613 114.025 37.832 114.623 38.088C115.263 38.344 115.711 38.6853 115.967 39.112C116.607 40.2213 116.799 41.224 116.543 42.12C116.329 42.9733 115.86 43.6347 115.135 44.104C114.367 44.6587 113.471 45.0213 112.447 45.192C111.423 45.4053 110.484 45.4907 109.631 45.448C107.881 45.3627 106.025 45.3413 104.062 45.384C102.1 45.4693 100.244 45.5333 98.4945 45.576C97.8972 45.576 97.2572 45.576 96.5745 45.576C95.9345 45.6187 95.3158 45.576 94.7185 45.448C94.1212 45.3627 93.5452 45.1707 92.9905 44.872C92.4785 44.5733 92.0305 44.104 91.6465 43.464C91.1345 42.6533 91.0065 41.8427 91.2625 41.032C91.5612 40.1787 91.9025 39.3893 92.2865 38.664C92.8838 37.5973 93.5878 36.552 94.3985 35.528C95.2518 34.504 95.9772 33.6293 96.5745 32.904L104.575 22.408L98.1105 22.6C97.5985 22.6 97.0438 22.6 96.4465 22.6C95.8918 22.6 95.3158 22.5573 94.7185 22.472C94.1212 22.344 93.5665 22.1947 93.0545 22.024C92.5425 21.8533 92.0945 21.5973 91.7105 21.256C91.3265 20.872 91.0492 20.4453 90.8785 19.976C90.7078 19.464 90.6225 18.952 90.6225 18.44C90.6652 17.928 90.7718 17.4373 90.9425 16.968C91.1558 16.456 91.4332 16.008 91.7745 15.624C92.0305 15.368 92.3505 15.1547 92.7345 14.984C93.1612 14.8133 93.6305 14.6853 94.1425 14.6C94.6545 14.5147 95.1665 14.472 95.6785 14.472C96.2332 14.4293 96.7452 14.408 97.2145 14.408C98.1532 14.408 99.1985 14.408 100.351 14.408C101.503 14.408 102.612 14.408 103.679 14.408C104.788 14.3653 105.812 14.344 106.751 14.344C107.732 14.3013 108.521 14.28 109.119 14.28C109.887 14.28 110.655 14.2587 111.423 14.216C112.191 14.1733 112.916 14.2373 113.599 14.408C114.281 14.5787 114.857 14.8987 115.327 15.368C115.839 15.7947 116.159 16.4987 116.287 17.48C116.372 18.12 116.329 18.76 116.159 19.4C116.031 19.9973 115.796 20.5947 115.455 21.192C115.156 21.7467 114.793 22.3227 114.367 22.92C113.94 23.4747 113.513 24.008 113.087 24.52L103.167 37.32H108.159ZM129.298 18.056C130.578 17.416 131.922 16.968 133.33 16.712C134.738 16.4133 136.125 16.3493 137.49 16.52C138.898 16.648 140.242 17.0107 141.522 17.608C142.802 18.1627 143.997 18.9733 145.106 20.04C146.215 21.1493 147.069 22.3653 147.666 23.688C148.263 25.0107 148.69 26.4827 148.946 28.104C149.117 29.2133 149.394 30.2373 149.778 31.176C150.162 32.1147 150.567 33.0533 150.994 33.992C151.463 34.9307 151.89 35.8693 152.274 36.808C152.701 37.7467 153.042 38.728 153.298 39.752C153.511 40.7333 153.426 41.6933 153.042 42.632C152.701 43.528 151.975 44.0827 150.866 44.296C150.226 44.424 149.607 44.3813 149.01 44.168C148.455 43.912 147.943 43.5707 147.474 43.144C147.005 42.6747 146.578 42.184 146.194 41.672C145.853 41.1173 145.533 40.6053 145.234 40.136C144.253 41.416 143.186 42.4187 142.034 43.144C140.882 43.8267 139.495 44.2747 137.874 44.488C136.509 44.6587 135.207 44.7013 133.97 44.616C132.733 44.5307 131.41 44.296 130.002 43.912C128.167 43.4427 126.653 42.632 125.458 41.48C124.306 40.2853 123.41 38.92 122.77 37.384C122.173 35.8053 121.853 34.12 121.81 32.328C121.767 30.536 121.981 28.7653 122.45 27.016C123.047 24.712 123.943 22.8347 125.138 21.384C126.333 19.9333 127.719 18.824 129.298 18.056ZM130.898 25.544C130.301 26.1413 129.831 26.8453 129.49 27.656C129.149 28.4667 128.935 29.32 128.85 30.216C128.807 31.112 128.893 32.008 129.106 32.904C129.319 33.8 129.661 34.5893 130.13 35.272C130.557 35.8693 131.282 36.3813 132.306 36.808C133.33 37.192 134.397 37.4267 135.506 37.512C136.786 37.5973 137.895 37.256 138.834 36.488C139.815 35.72 140.541 34.76 141.01 33.608C141.522 32.4133 141.757 31.1547 141.714 29.832C141.671 28.4667 141.309 27.2293 140.626 26.12C140.114 25.3093 139.431 24.712 138.578 24.328C137.767 23.944 136.893 23.752 135.954 23.752C135.015 23.7093 134.077 23.8587 133.138 24.2C132.242 24.4987 131.495 24.9467 130.898 25.544ZM193.311 30.088C193.396 31.4533 193.439 32.7547 193.439 33.992C193.439 35.1867 193.396 36.4667 193.311 37.832C193.311 38.344 193.311 38.92 193.311 39.56C193.311 40.2 193.268 40.8187 193.183 41.416C193.097 42.0133 192.948 42.568 192.735 43.08C192.521 43.592 192.201 43.9973 191.775 44.296C191.263 44.6373 190.687 44.872 190.047 45C189.407 45.0853 188.809 45.0427 188.255 44.872C187.7 44.7013 187.209 44.3813 186.783 43.912C186.399 43.4427 186.185 42.7813 186.143 41.928C186.015 39.9653 185.951 38.0027 185.951 36.04C185.951 35.0587 185.929 34.12 185.887 33.224C185.887 32.328 185.908 31.0693 185.951 29.448C185.951 28.6373 185.887 27.72 185.759 26.696C185.631 25.6293 185.311 24.8827 184.799 24.456C184.415 24.1147 183.988 23.9227 183.519 23.88C183.049 23.7947 182.58 23.8373 182.111 24.008C181.684 24.1787 181.3 24.4987 180.959 24.968C180.617 25.3947 180.383 25.9493 180.255 26.632C180.255 27.1867 180.233 27.7627 180.191 28.36C180.191 28.9147 180.212 29.448 180.255 29.96C180.297 31.3253 180.319 32.6267 180.319 33.864C180.319 35.0587 180.297 36.3387 180.255 37.704C180.212 38.2587 180.191 38.856 180.191 39.496C180.233 40.136 180.233 40.776 180.191 41.416C180.148 42.0133 180.02 42.568 179.807 43.08C179.636 43.592 179.316 43.9973 178.847 44.296C178.335 44.6373 177.78 44.8507 177.183 44.936C176.628 44.9787 176.095 44.8933 175.583 44.68C175.113 44.424 174.687 44.04 174.303 43.528C173.961 43.016 173.769 42.3333 173.727 41.48C173.641 40.4987 173.577 39.6027 173.535 38.792C173.535 37.9387 173.535 37.0427 173.535 36.104C173.535 35.1227 173.556 34.12 173.599 33.096C173.641 32.0293 173.62 31.0053 173.535 30.024C173.535 29.7253 173.513 29.384 173.471 29C173.471 28.5733 173.449 28.1467 173.407 27.72C173.407 27.2933 173.364 26.888 173.279 26.504C173.236 26.0773 173.151 25.736 173.023 25.48C172.681 24.8827 172.063 24.4987 171.167 24.328C170.313 24.1573 169.588 24.2213 168.991 24.52C168.393 24.8187 167.945 25.2027 167.647 25.672C167.348 26.1413 167.135 26.6533 167.007 27.208C166.879 27.7627 166.815 28.36 166.815 29C166.815 29.5973 166.815 30.1733 166.815 30.728C166.815 33.5013 166.815 35.912 166.815 37.96C166.857 39.9653 166.644 41.5867 166.175 42.824C165.961 43.464 165.513 43.9547 164.831 44.296C164.191 44.6373 163.487 44.808 162.719 44.808C161.993 44.808 161.311 44.6373 160.671 44.296C160.031 43.9547 159.604 43.4213 159.391 42.696C159.263 42.2267 159.135 41.5653 159.007 40.712C158.921 39.816 158.857 38.8347 158.815 37.768C158.772 36.7013 158.751 35.6347 158.751 34.568C158.751 33.4587 158.751 32.456 158.751 31.56V22.344C158.708 21.3627 158.687 20.296 158.687 19.144C158.687 17.992 158.857 16.9467 159.199 16.008C159.497 15.1973 159.967 14.6853 160.607 14.472C161.247 14.216 161.908 14.1093 162.591 14.152C163.359 14.152 163.956 14.3653 164.383 14.792C164.852 15.176 165.193 15.6667 165.407 16.264C165.62 16.8187 165.748 17.4587 165.791 18.184C165.833 18.8667 165.876 19.528 165.919 20.168C166.388 19.1013 166.943 18.2267 167.583 17.544C168.265 16.8187 169.225 16.3493 170.463 16.136C173.62 15.5387 176.137 16.3493 178.015 18.568C178.868 17.7147 179.956 17.0107 181.279 16.456C182.303 16.072 183.348 15.9013 184.415 15.944C185.481 15.944 186.484 16.136 187.423 16.52C188.404 16.904 189.279 17.4587 190.047 18.184C190.857 18.9093 191.497 19.784 191.967 20.808C192.607 22.1733 192.969 23.688 193.055 25.352C193.14 27.016 193.225 28.5947 193.311 30.088ZM206.432 45C206.432 46.1093 206.027 47.048 205.216 47.816C204.448 48.6267 203.509 49.032 202.4 49.032C201.291 49.032 200.331 48.6267 199.52 47.816C198.752 47.048 198.368 46.1093 198.368 45C198.368 43.8907 198.752 42.9307 199.52 42.12C200.331 41.3093 201.291 40.904 202.4 40.904C203.509 40.904 204.448 41.3093 205.216 42.12C206.027 42.9307 206.432 43.8907 206.432 45ZM218.861 18.056C220.141 17.416 221.485 16.968 222.893 16.712C224.301 16.4133 225.687 16.3493 227.053 16.52C228.461 16.648 229.805 17.0107 231.085 17.608C232.365 18.1627 233.559 18.9733 234.669 20.04C235.778 21.1493 236.631 22.3653 237.229 23.688C237.826 25.0107 238.253 26.4827 238.509 28.104C238.679 29.2133 238.957 30.2373 239.341 31.176C239.725 32.1147 240.13 33.0533 240.557 33.992C241.026 34.9307 241.453 35.8693 241.837 36.808C242.263 37.7467 242.605 38.728 242.861 39.752C243.074 40.7333 242.988 41.6933 242.604 42.632C242.263 43.528 241.538 44.0827 240.429 44.296C239.789 44.424 239.17 44.3813 238.573 44.168C238.018 43.912 237.506 43.5707 237.037 43.144C236.567 42.6747 236.141 42.184 235.757 41.672C235.415 41.1173 235.095 40.6053 234.797 40.136C233.815 41.416 232.749 42.4187 231.597 43.144C230.445 43.8267 229.058 44.2747 227.437 44.488C226.071 44.6587 224.77 44.7013 223.533 44.616C222.295 44.5307 220.973 44.296 219.565 43.912C217.73 43.4427 216.215 42.632 215.021 41.48C213.869 40.2853 212.973 38.92 212.333 37.384C211.735 35.8053 211.415 34.12 211.373 32.328C211.33 30.536 211.543 28.7653 212.013 27.016C212.61 24.712 213.506 22.8347 214.701 21.384C215.895 19.9333 217.282 18.824 218.861 18.056ZM220.461 25.544C219.863 26.1413 219.394 26.8453 219.053 27.656C218.711 28.4667 218.498 29.32 218.413 30.216C218.37 31.112 218.455 32.008 218.669 32.904C218.882 33.8 219.223 34.5893 219.693 35.272C220.119 35.8693 220.845 36.3813 221.869 36.808C222.893 37.192 223.959 37.4267 225.069 37.512C226.349 37.5973 227.458 37.256 228.397 36.488C229.378 35.72 230.103 34.76 230.573 33.608C231.085 32.4133 231.319 31.1547 231.277 29.832C231.234 28.4667 230.871 27.2293 230.189 26.12C229.677 25.3093 228.994 24.712 228.141 24.328C227.33 23.944 226.455 23.752 225.517 23.752C224.578 23.7093 223.639 23.8587 222.701 24.2C221.805 24.4987 221.058 24.9467 220.461 25.544ZM256.249 20.744C256.249 21.9387 256.249 23.2827 256.249 24.776C256.292 26.2693 256.313 27.8267 256.313 29.448C256.313 31.0267 256.313 32.6053 256.313 34.184C256.313 35.72 256.292 37.1493 256.249 38.472C256.206 39.112 256.142 39.816 256.057 40.584C255.972 41.3093 255.801 41.992 255.545 42.632C255.289 43.272 254.884 43.8053 254.329 44.232C253.817 44.616 253.113 44.7867 252.217 44.744C250.894 44.6587 249.934 44.0827 249.337 43.016C248.782 41.9493 248.462 40.456 248.377 38.536C248.377 37.5547 248.356 36.424 248.313 35.144C248.313 33.864 248.292 32.5627 248.249 31.24C248.249 29.9173 248.249 28.6373 248.249 27.4C248.249 26.12 248.249 24.968 248.249 23.944C248.249 23.3467 248.228 22.6213 248.185 21.768C248.185 20.9147 248.206 20.04 248.249 19.144C248.292 18.248 248.398 17.3947 248.569 16.584C248.74 15.7307 249.017 15.0267 249.401 14.472C249.7 14.1307 250.126 13.8747 250.681 13.704C251.236 13.4907 251.812 13.384 252.409 13.384C253.049 13.384 253.646 13.4907 254.201 13.704C254.798 13.9173 255.225 14.216 255.481 14.6C255.652 14.856 255.78 15.2187 255.865 15.688C255.95 16.1573 256.014 16.6907 256.057 17.288C256.142 17.8427 256.185 18.44 256.185 19.08C256.228 19.6773 256.249 20.232 256.249 20.744ZM253.817 7.816C252.494 8.15733 251.385 8.02933 250.489 7.432C249.636 6.792 249.102 5.85333 248.889 4.616C248.718 3.72 248.782 2.93067 249.081 2.248C249.38 1.56533 249.828 1.05333 250.425 0.711998C251.022 0.327998 251.705 0.157331 252.473 0.199997C253.241 0.242663 254.009 0.54133 254.777 1.096C255.502 1.608 256.014 2.20533 256.313 2.888C256.654 3.57066 256.761 4.232 256.633 4.872C256.548 5.512 256.27 6.10933 255.801 6.664C255.332 7.176 254.67 7.56 253.817 7.816Z" fill="white"/>
</svg>
